<svg xmlns="http://www.w3.org/2000/svg" viewBox="0 0 220.97 190.78"><defs><style>.cls-1{fill:#ddd;}.cls-1,.cls-2,.cls-3{stroke:#252525;stroke-width:5.43px;}.cls-1,.cls-3{stroke-miterlimit:10;}.cls-2{fill:#fff;stroke-linecap:round;stroke-linejoin:round;}.cls-3{fill:none;}</style></defs><title>logo2</title><g id="Layer_2" data-name="Layer 2"><g id="Capa_1" data-name="Capa 1"><path class="cls-1" d="M218.26,136.46A11.28,11.28,0,0,1,207,147.74H14A11.28,11.28,0,0,1,2.72,136.46V14A11.29,11.29,0,0,1,14,2.72H207A11.28,11.28,0,0,1,218.26,14Z"/><rect class="cls-2" x="15.49" y="15.84" width="190.01" height="118.79"/><rect class="cls-1" x="90.12" y="147.74" width="40.74" height="30.54"/><path class="cls-2" d="M144.27,178.28H76.71s-8.79,0-9.71,9.78h87C153.06,178.28,144.27,178.28,144.27,178.28Z"/><polyline class="cls-3" points="28.78 63.68 28.78 122.34 80.92 122.34"/><path class="cls-3" d="M147.6,75.7c0-1.13-.06-2.23-.15-3.34l7.43-1.95-3.33-12.73-7.58,2a37.09,37.09,0,0,0-6.15-9.06l4.86-6.3-10.42-8-4.93,6.38a36.79,36.79,0,0,0-10.27-3.45V31.07H103.91v8.11a36.62,36.62,0,0,0-9.79,3.21l-4.83-6.46L78.74,43.83l4.78,6.38a37.69,37.69,0,0,0-4.81,6.31l-7.39-2.72L66.76,66.15,74,68.82a37.28,37.28,0,0,0-.64,6.88c0,.81,0,1.62.08,2.42L66.09,80l3.33,12.74,7.2-1.89a37.15,37.15,0,0,0,6.14,9.47l-4.48,5.81,10.42,8,4.41-5.71a36.65,36.65,0,0,0,10.79,3.72v7.18h13.16v-7.18a37,37,0,0,0,10.3-3.47l4.32,5.78,10.54-7.89-4.39-5.86a37.13,37.13,0,0,0,4.87-6.66l6.95,2.55,4.55-12.35-7.09-2.61A37.51,37.51,0,0,0,147.6,75.7Zm-37.11,24.8a25.27,25.27,0,1,1,25.27-25.27A25.27,25.27,0,0,1,110.49,100.5Z"/></g></g></svg>