<svg xmlns="http://www.w3.org/2000/svg" viewBox="0 0 220.97 166.8"><defs><style>.cls-1{fill:#fff;}.cls-1,.cls-2,.cls-3{stroke:#252525;stroke-miterlimit:10;stroke-width:5.43px;}.cls-2{fill:none;}.cls-3{fill:#76cce0;}</style></defs><title>logo1</title><g id="Layer_2" data-name="Layer 2"><g id="Capa_1" data-name="Capa 1"><path class="cls-1" d="M218.26,159.34a4.74,4.74,0,0,1-4.74,4.74H7.45a4.74,4.74,0,0,1-4.74-4.74V7.45A4.74,4.74,0,0,1,7.45,2.72H213.52a4.74,4.74,0,0,1,4.74,4.74Z"/><rect class="cls-1" x="16.8" y="48.88" width="122.75" height="99.39"/><path class="cls-1" d="M218.26,29.54V7.45a4.74,4.74,0,0,0-4.74-4.74H7.45A4.74,4.74,0,0,0,2.72,7.45V29.54Z"/><rect class="cls-1" x="164.9" y="12.16" width="7.6" height="7.6"/><rect class="cls-1" x="180.29" y="12.16" width="7.61" height="7.6"/><rect class="cls-1" x="195.68" y="12.16" width="7.6" height="7.6"/><path class="cls-2" d="M76.47,85c0-.68,0-1.36-.1-2l4.53-1.19-2-7.74-4.61,1.21a22.87,22.87,0,0,0-3.74-5.52l3-3.83L67.14,61l-3,3.89a22.21,22.21,0,0,0-6.25-2.1V57.8h-8v4.94a22.17,22.17,0,0,0-6,1.95L41,60.77l-6.41,4.8,2.91,3.88a22.44,22.44,0,0,0-2.93,3.84L30,71.63l-2.77,7.52,4.41,1.63A22.21,22.21,0,0,0,31.3,85c0,.49,0,1,.05,1.48l-4.48,1.17,2,7.75,4.38-1.15A22.41,22.41,0,0,0,37,100l-2.73,3.53,6.34,4.89,2.68-3.47a22.31,22.31,0,0,0,6.57,2.26v4.36h8v-4.36a22.37,22.37,0,0,0,6.27-2.11l2.63,3.52,6.41-4.8-2.67-3.56a22.59,22.59,0,0,0,3-4.06l4.23,1.55,2.76-7.52-4.31-1.59A22.7,22.7,0,0,0,76.47,85Zm-22.59,15.1A15.38,15.38,0,1,1,69.27,84.68,15.38,15.38,0,0,1,53.88,100.06Z"/><path class="cls-1" d="M123.21,114.63l4.14-.32-.6-8-4.09.31a20,20,0,0,0-2.89-6.18l2.81-2.95L116.77,92,114,94.9a20.14,20.14,0,0,0-6.9-2.79v-4h-8v4A20.15,20.15,0,0,0,90.6,96l-3.05-2.65-5.26,6.05,3.08,2.67a20.11,20.11,0,0,0-2.46,7.55l-4.11.31.6,8,4.15-.31a20.18,20.18,0,0,0,2.93,6.08l-2.9,3.05,5.8,5.53,2.92-3.07a20.19,20.19,0,0,0,6.76,2.7v4.25h8v-4.25a20.12,20.12,0,0,0,8.33-3.78l3.2,2.78,5.25-6.05-3.17-2.75A20.31,20.31,0,0,0,123.21,114.63Zm-20.13,3.87a6.38,6.38,0,1,1,6.38-6.38A6.38,6.38,0,0,1,103.07,118.5Z"/><circle class="cls-1" cx="103.07" cy="112.13" r="6.38"/><path class="cls-2" d="M103.07,128.82"/><line class="cls-3" x1="151.92" y1="56.37" x2="207.26" y2="56.37"/><line class="cls-3" x1="151.92" y1="90.03" x2="164.87" y2="90.03"/><line class="cls-3" x1="169.98" y1="90.03" x2="207.26" y2="90.03"/><line class="cls-3" x1="151.92" y1="72.12" x2="173.12" y2="72.12"/><line class="cls-3" x1="179" y1="72.12" x2="207.26" y2="72.12"/><line class="cls-3" x1="151.92" y1="107.14" x2="207.26" y2="107.14"/><line class="cls-3" x1="151.92" y1="140.78" x2="164.87" y2="140.78"/><line class="cls-3" x1="169.98" y1="140.78" x2="207.26" y2="140.78"/><line class="cls-3" x1="151.92" y1="122.88" x2="173.12" y2="122.88"/><line class="cls-3" x1="179" y1="122.88" x2="207.26" y2="122.88"/></g></g></svg>