<svg xmlns="http://www.w3.org/2000/svg" viewBox="0 0 205.22 178.7"><defs><style>.cls-1{fill:#fff;}.cls-1,.cls-2{stroke:#252525;stroke-miterlimit:10;stroke-width:5.43px;}.cls-2{fill:#ddd;}</style></defs><title>logo3</title><g id="Layer_2" data-name="Layer 2"><g id="Capa_1" data-name="Capa 1"><path class="cls-1" d="M93.56,159.59c3.43,23.12-50.24,23.83-54.78-11.14-22.07,6.18-37.32-15.13-26.65-34-12.8-8.74-12.57-34.23.77-41.87C2.71,61.76,15.08,31.34,39.74,36.77,33,12.34,68.65-7.57,93.7,11.9Z"/><path class="cls-1" d="M39,31.34c1.83,10.84,11.37,19.23,22.27,21.19"/><path class="cls-1" d="M61.25,23.2c-2.52,16.2,24.66,23,32,12.49"/><path class="cls-1" d="M47.67,47.1c0,5.68-7.65,13-11.95,14.66"/><path class="cls-1" d="M30.84,80.23c6.7,3.39,6.85,13.13,14.1,15.29,7.6,2.26,11.73-6.13,14.79-12,4.65-8.89,11.56-12.49,21.62-10.9a50.53,50.53,0,0,1,10.87,3.77"/><path class="cls-1" d="M23.23,79.68c5.2,6.45,13.55-3.08,8.15-8.69"/><path class="cls-1" d="M93.84,113.36c-7.13-7.11-18.24.91-20.63,8.62C70.38,131,79,138.43,75.94,147.26c-1.83,5.36-6,7.72-11.44,6.83"/><path class="cls-1" d="M39,153c-8.37-21.91,33.13-15.74,15.21-48.88"/><path class="cls-1" d="M11.82,115.53c3-4.86,10.08-5.23,15.25-4.91,4.68.29,9.93,3.81,11.91,4.37"/><path class="cls-1" d="M201.63,104.13l.78-23.89-14.49-.48a72.91,72.91,0,0,0-4.07-14.31l13.29-7.28-11.5-21-14.13,7.74a74.44,74.44,0,0,0-10.09-9.8l8.44-14.26L149.28,8.7l-8.71,14.71A73.67,73.67,0,0,0,127.39,20V2.72H115.58V176h11.81V165.28a72.43,72.43,0,0,0,13.05-3.39l5.09,9.57,21.11-11.21-5.34-10a74.53,74.53,0,0,0,10.79-10.57l10,6.35,12.85-20.17L184.19,119a73,73,0,0,0,4.05-15.29Z"/><path class="cls-2" d="M115.58,37.08V53.56a35.79,35.79,0,0,1,0,71.57v16.48a52.27,52.27,0,0,0,0-104.53Z"/></g></g></svg>