<?xml version="1.0" encoding="utf-8"?>
<!-- Generator: Adobe Illustrator 21.0.0, SVG Export Plug-In . SVG Version: 6.00 Build 0)  -->
<svg version="1.1" id="Layer_1" xmlns="http://www.w3.org/2000/svg" xmlns:xlink="http://www.w3.org/1999/xlink" x="0px" y="0px"
	 viewBox="0 0 206.3 153.4" style="enable-background:new 0 0 206.3 153.4;" xml:space="preserve">
<style type="text/css">
	.st0{fill:none;stroke:#FFFFFF;stroke-width:9.01;}
	.st1{fill:none;stroke:#FFFFFF;stroke-width:8.99;}
	.st2{fill:#FFFFFF;}
</style>
<title>logo</title>
<g id="Layer_2">
	<g id="Layer_1-2">
		<line class="st0" x1="0" y1="146.9" x2="206.3" y2="146.9"/>
		<line class="st1" x1="0" y1="4.5" x2="204.8" y2="4.5"/>
		<line class="st0" x1="4.1" y1="121.9" x2="3.5" y2="-0.4"/>
		<path class="st2" d="M60.8,92.7c2.2,0,4.5-0.4,6.6-1.1v-8.1c-1.6,0.8-3.3,1.2-5.1,1.3c-2.3,0-4.1-1-4.1-4.5V62.8h9.2v-7.5h-9.2
			V39.9l-8.7,6.4v9.1h-6v7.5h5.9v19C49.3,88.5,53.6,92.7,60.8,92.7z"/>
		<polygon class="st2" points="82.3,92.1 90.4,92.1 97.6,68 104.8,91.9 112.8,91.9 124.1,55.4 114.6,55.4 108.3,78.2 101.4,55.4 
			93.8,55.4 86.8,78.3 80.6,55.4 71.1,55.4 		"/>
		<path class="st2" d="M142.3,85.1c-3.5,0-5.4-1.7-5.4-4.1s1.9-4.4,5.9-4.4h9C151.7,81.1,147.4,85.1,142.3,85.1z M141,92.7
			c4.6,0.2,9-2.1,11.4-6l0.6,5.2h7.4V69.8c0-8.9-5.9-15.2-15.8-15.2c-7.2,0-11.9,3.2-15.4,8l6.9,5c1.7-3.2,5-5.1,8.6-5.2
			c4.7,0,7.2,3.1,7.2,7.7h-9.5c-8.2,0-14.6,2.6-14.6,10.6C127.7,88.4,133.5,92.7,141,92.7z"/>
		<line class="st0" x1="203.4" y1="121.9" x2="202.6" y2="-0.4"/>
	</g>
</g>
</svg>
