<?xml version="1.0" encoding="utf-8"?>
<!-- Generator: Adobe Illustrator 21.0.0, SVG Export Plug-In . SVG Version: 6.00 Build 0)  -->
<svg version="1.1" id="Layer_1" xmlns="http://www.w3.org/2000/svg" xmlns:xlink="http://www.w3.org/1999/xlink" x="0px" y="0px"
	 viewBox="0 0 144 146.5" style="enable-background:new 0 0 144 146.5;" xml:space="preserve">
<style type="text/css">
	.st0{fill:#A2A2FF;}
	.st1{fill:#95F9DF;}
	.st2{fill:#FFFFFF;}
</style>
<path class="st0" d="M139.8,91.8h-2v-2c0-0.6-0.5-1.2-1.2-1.2c-0.6,0-1.2,0.5-1.2,1.2v2h-2c-0.6,0-1.2,0.5-1.2,1.2s0.5,1.2,1.2,1.2
	h2v2c0,0.6,0.5,1.2,1.2,1.2c0.6,0,1.2-0.5,1.2-1.2v-2h2c0.6,0,1.2-0.5,1.2-1.2S140.5,91.8,139.8,91.8z"/>
<circle class="st1" cx="72.7" cy="50.7" r="46.9"/>
<path class="st1" d="M109,144.5H36.5c-4.2,0-7.6-3.4-7.6-7.6l0,0c0-4.2,3.4-7.6,7.6-7.6H109c4.2,0,7.6,3.4,7.6,7.6l0,0
	C116.7,141,113.2,144.5,109,144.5z"/>
<g>
	<path class="st2" d="M121.7,81.9C121.7,81.9,121.7,81.9,121.7,81.9l-5.9-29.8c0,0,0,0,0-0.1c0.7-7.8-4.4-15.3-12.2-17.4
		c-7.1-1.9-14.3,1.2-18.1,7h-7.2v-3c0-2-1.3-3.6-3-4.2v-4.8c0-0.8-0.7-1.5-1.5-1.5s-1.5,0.7-1.5,1.5v4.8c-1.7,0.6-3,2.3-3,4.2v3
		h-7.2c-3-4.6-8.1-7.5-13.8-7.5c-9.1,0-16.5,7.4-16.5,16.5c0,0.5,0,0.9,0.1,1.3c0,0,0,0.1,0,0.1L26,81.9c0,0,0,0,0,0
		c-0.1,0.6-0.1,1.2-0.1,1.8c0,5.8,4.7,10.5,10.5,10.5c3.7,0,7.2-2,9.1-5.2l12.8-21.8h31.3l12.8,21.8c1.9,3.2,5.4,5.3,9.1,5.3
		c5.8,0,10.5-4.7,10.5-10.5C121.9,83.1,121.8,82.5,121.7,81.9z"/>
	<path class="st0" d="M116.9,83.7c0,0-5.8-25.3-5.9-31.5c-0.2-8.3-6.7-15-15.1-15c-5.6,0-10.4,3-13.1,7.5h-9.6v-4.5c0-1.7-1.3-3-3-3
		s-3,1.3-3,3v4.5h-9.6c-2.6-4.5-7.5-7.5-13.1-7.5c-8.3,0-13.8,6-15.1,15c-0.1,0.6-5.9,31.5-5.9,31.5c-0.1,0.5-0.1,1-0.1,1.5
		c0,5,4,9,9,9c3.3,0,5.1-1.9,6.7-4.6l13.5-22.4l34,0l13.3,22.5c1.6,2.7,4.5,4.5,7.8,4.5c5,0,9-4,9-9C117,84.7,117,84.2,116.9,83.7z"
		/>
	<g>
		<g>
			<path d="M48.3,67.2c-9.1,0-16.5-7.4-16.5-16.5c0-9.1,7.4-16.5,16.5-16.5c6.9,0,12.9,4.1,15.4,10.5c0.3,0.8-0.1,1.6-0.9,1.9
				c-0.8,0.3-1.6-0.1-1.9-0.9c-2-5.2-7-8.6-12.6-8.6c-7.5,0-13.5,6.1-13.5,13.5s6.1,13.5,13.5,13.5s13.5-6.1,13.5-13.5
				c0-0.8,0.7-1.5,1.5-1.5c0.8,0,1.5,0.7,1.5,1.5C64.8,59.8,57.4,67.2,48.3,67.2z"/>
		</g>
		<g>
			<path d="M95.2,66.6c-3.3-0.9-6.1-2.7-8.3-5.2c-0.5-0.6-0.5-1.6,0.2-2.1c0.6-0.5,1.6-0.5,2.1,0.2c1.8,2.1,4.1,3.6,6.8,4.3
				c7.2,1.9,14.6-2.4,16.5-9.6c1.9-7.2-2.4-14.6-9.6-16.5c-7.2-1.9-14.6,2.4-16.5,9.6c-0.7,2.5-0.6,5.1,0.2,7.5
				c0.3,0.8-0.2,1.6-1,1.9c-0.8,0.3-1.6-0.2-1.9-1c-1-3-1-6.2-0.2-9.2c2.3-8.8,11.4-14.1,20.2-11.8c8.8,2.3,14.1,11.4,11.8,20.2
				C113,63.7,104,68.9,95.2,66.6z"/>
		</g>
		<g>
			<path d="M97.9,67.2h-48c-0.8,0-1.5-0.7-1.5-1.5c0-0.8,0.7-1.5,1.5-1.5h48c0.8,0,1.5,0.7,1.5,1.5C99.4,66.5,98.7,67.2,97.9,67.2z"
				/>
		</g>
		<g>
			<path d="M85.9,44.6h-24c-0.8,0-1.5-0.7-1.5-1.5c0-0.8,0.7-1.5,1.5-1.5h24c0.8,0,1.5,0.7,1.5,1.5C87.4,44,86.7,44.6,85.9,44.6z"/>
		</g>
		<g>
			<path d="M36.3,94.2c-5.8,0-10.5-4.7-10.5-10.5c0-0.6,0-1.2,0.1-1.8c0,0,0,0,0,0l5.9-29.8c0.2-0.8,0.9-1.3,1.8-1.2
				c0.8,0.2,1.3,1,1.2,1.8l-5.9,29.8c-0.1,0.4-0.1,0.8-0.1,1.2c0,4.1,3.4,7.5,7.5,7.5c2.7,0,5.2-1.4,6.5-3.8L56,64.9
				c0.4-0.7,1.3-1,2.1-0.5c0.7,0.4,1,1.3,0.5,2.1L45.4,88.9C43.5,92.2,40.1,94.2,36.3,94.2z"/>
		</g>
		<g>
			<path d="M111.4,94.2c-3.7,0-7.2-2-9.1-5.3L89.1,66.4c-0.4-0.7-0.2-1.6,0.5-2.1c0.7-0.4,1.6-0.2,2.1,0.5l13.2,22.5
				c1.3,2.3,3.8,3.8,6.5,3.8c4.1,0,7.5-3.4,7.5-7.5c0-0.4,0-0.8-0.1-1.2l-5.9-29.8c-0.2-0.8,0.4-1.6,1.2-1.8
				c0.8-0.2,1.6,0.4,1.8,1.2l5.9,29.8c0,0,0,0,0,0c0.1,0.6,0.1,1.2,0.1,1.8C121.9,89.5,117.2,94.2,111.4,94.2z"/>
		</g>
		<g>
			<path d="M76.8,59.7h-6c-0.8,0-1.5-0.7-1.5-1.5c0-0.8,0.7-1.5,1.5-1.5h6c0.8,0,1.5,0.7,1.5,1.5C78.4,59,77.7,59.7,76.8,59.7z"/>
		</g>
		<g>
			<path d="M90.9,52.8c-1.2-1.2-1.2-3.1,0-4.2c1.2-1.2,3.1-1.2,4.2,0c1.2,1.2,1.2,3.1,0,4.2C94,53.9,92,53.9,90.9,52.8z M93,50.6
				L93,50.6L93,50.6z"/>
		</g>
		<g>
			<path d="M97.2,59.1c-1.2-1.2-1.2-3.1,0-4.2c1.2-1.2,3.1-1.2,4.2,0c1.2,1.2,1.2,3.1,0,4.2C100.3,60.3,98.4,60.3,97.2,59.1z
				 M99.4,57L99.4,57L99.4,57z"/>
		</g>
		<g>
			<path d="M97.2,46.4c-1.2-1.2-1.2-3.1,0-4.2c1.2-1.2,3.1-1.2,4.2,0c1.2,1.2,1.2,3.1,0,4.2C100.3,47.6,98.4,47.6,97.2,46.4z
				 M99.4,44.3L99.4,44.3L99.4,44.3z"/>
		</g>
		<g>
			<path d="M103.6,52.8c-1.2-1.2-1.2-3.1,0-4.2c1.2-1.2,3.1-1.2,4.2,0c1.2,1.2,1.2,3.1,0,4.2C106.7,53.9,104.8,53.9,103.6,52.8z
				 M105.7,50.6L105.7,50.6L105.7,50.6z"/>
		</g>
		<g>
			<path d="M76.8,44.6c-0.8,0-1.5-0.7-1.5-1.5v-4.5c0-0.8-0.7-1.5-1.5-1.5s-1.5,0.7-1.5,1.5v4.5c0,0.8-0.7,1.5-1.5,1.5
				c-0.8,0-1.5-0.7-1.5-1.5v-4.5c0-2.5,2-4.5,4.5-4.5s4.5,2,4.5,4.5v4.5C78.4,44,77.7,44.6,76.8,44.6z"/>
		</g>
		<g>
			<path d="M73.8,37.1c-0.8,0-1.5-0.7-1.5-1.5v-6c0-0.8,0.7-1.5,1.5-1.5s1.5,0.7,1.5,1.5v6C75.3,36.4,74.7,37.1,73.8,37.1z"/>
		</g>
	</g>
	<path d="M46.6,53.1h-4.2c-0.5,0-0.9-0.2-1.2-0.5c-0.3-0.3-0.5-0.8-0.5-1.2c0-1,0.8-1.8,1.8-1.8h4.2v-4.2c0-1,0.8-1.8,1.8-1.8
		c0.5,0,0.9,0.2,1.2,0.5c0.3,0.3,0.5,0.8,0.5,1.2v4.2l4.2,0c0.5,0,0.9,0.2,1.2,0.5c0.3,0.3,0.5,0.8,0.5,1.2c0,1-0.8,1.8-1.8,1.8
		l-4.2,0l0,4.2c0,1-0.8,1.8-1.8,1.8c-0.5,0-0.9-0.2-1.2-0.5c-0.3-0.3-0.5-0.8-0.5-1.2V53.1"/>
</g>
<g>
	<path d="M10.7,104.7h8.3c4.9,0,8.1,2.5,8.1,6.8v0.1c0,4.6-3.5,7-8.4,7h-2.7v5.6h-5.4V104.7z M18.7,114.4c1.9,0,3.1-1,3.1-2.5v-0.1
		c0-1.7-1.2-2.6-3.1-2.6h-2.5v5.1H18.7z"/>
	<path d="M25,104.7h5.4v14.7h9.4v4.7H25V104.7z"/>
	<path d="M44.4,104.6h5.2l8.3,19.6h-5.8l-1.4-3.5h-7.5l-1.4,3.5h-5.7L44.4,104.6z M49.1,116.5L47,111l-2.2,5.5H49.1z"/>
	<path d="M57.9,116.9l-7.4-12.2h6.1l4,7.1l4-7.1h6l-7.4,12.1v7.4h-5.4V116.9z"/>
</g>
<g>
	<path class="st0" d="M69.7,120.3l9.8-11H70v-4.6h16.9v3.9l-9.8,11h9.8v4.6H69.7V120.3z"/>
	<path class="st0" d="M83.3,114.5L83.3,114.5c0-5.6,4.5-10.2,10.5-10.2c6,0,10.5,4.5,10.5,10.1v0.1c0,5.6-4.5,10.1-10.5,10.1
		C87.8,124.6,83.3,120.1,83.3,114.5z M98.8,114.5L98.8,114.5c0-2.9-2-5.3-5-5.3c-2.9,0-4.9,2.4-4.9,5.2v0.1c0,2.8,2,5.3,5,5.3
		C96.8,119.7,98.8,117.3,98.8,114.5z"/>
	<path class="st0" d="M102.2,104.7h5l8,10.3v-10.3h5.3v19.5h-4.7l-8.3-10.7v10.7h-5.3V104.7z"/>
	<path class="st0" d="M119.2,104.7h15.7v4.6h-10.3v2.9h9.3v4.3h-9.3v3.1H135v4.6h-15.8V104.7z"/>
</g>
<g>
	<path d="M39.2,139.6c-0.2,0.1-0.3,0.2-0.5,0.3c-0.2,0.1-0.4,0.1-0.6,0.2c-0.2,0-0.5,0.1-0.7,0.1c-0.4,0-0.8-0.1-1.2-0.2
		c-0.4-0.1-0.7-0.3-0.9-0.6c-0.3-0.3-0.4-0.6-0.6-0.9c-0.1-0.3-0.2-0.7-0.2-1.1c0-0.4,0.1-0.8,0.2-1.1c0.1-0.3,0.3-0.7,0.6-0.9
		s0.6-0.5,0.9-0.6c0.4-0.2,0.7-0.2,1.2-0.2c0.2,0,0.5,0,0.7,0.1c0.2,0,0.4,0.1,0.6,0.1c0.2,0.1,0.3,0.1,0.5,0.2
		c0.2,0.1,0.3,0.2,0.4,0.3l-0.6,0.7c-0.1-0.1-0.2-0.2-0.3-0.2c-0.1-0.1-0.2-0.1-0.4-0.2c-0.1,0-0.3-0.1-0.4-0.1c-0.1,0-0.3,0-0.5,0
		c-0.3,0-0.5,0.1-0.7,0.2c-0.2,0.1-0.4,0.2-0.6,0.4c-0.2,0.2-0.3,0.4-0.4,0.6c-0.1,0.2-0.1,0.5-0.1,0.8c0,0.3,0,0.5,0.1,0.8
		c0.1,0.2,0.2,0.5,0.4,0.6c0.2,0.2,0.4,0.3,0.6,0.4c0.2,0.1,0.5,0.2,0.8,0.2c0.3,0,0.5,0,0.7-0.1c0.2-0.1,0.4-0.2,0.6-0.3v-1h-1.4
		v-0.8h2.4v2.3C39.5,139.4,39.3,139.5,39.2,139.6z"/>
	<path d="M46.9,140h-1l-0.6-1.3h-2.6l-0.6,1.3h-1l2.5-5.6h0.9L46.9,140z M44,135.6l-1,2.2h1.9L44,135.6z"/>
	<path d="M51.3,138.7L51.3,138.7l-1.8-2.6v3.9h-1v-5.5h1l1.7,2.6l1.7-2.6h1v5.5h-1v-4L51.3,138.7z"/>
	<path d="M57.1,134.5v5.5h-1v-5.5H57.1z"/>
	<path d="M63.2,134.5h1v5.5h-0.8l-3.1-3.9v3.9h-1v-5.5h0.9l3,3.8V134.5z"/>
	<path d="M70.7,139.6c-0.2,0.1-0.3,0.2-0.5,0.3c-0.2,0.1-0.4,0.1-0.6,0.2c-0.2,0-0.5,0.1-0.7,0.1c-0.4,0-0.8-0.1-1.2-0.2
		c-0.4-0.1-0.7-0.3-0.9-0.6c-0.3-0.3-0.4-0.6-0.6-0.9s-0.2-0.7-0.2-1.1c0-0.4,0.1-0.8,0.2-1.1s0.3-0.7,0.6-0.9s0.6-0.5,0.9-0.6
		s0.7-0.2,1.2-0.2c0.2,0,0.5,0,0.7,0.1c0.2,0,0.4,0.1,0.6,0.1c0.2,0.1,0.3,0.1,0.5,0.2c0.2,0.1,0.3,0.2,0.4,0.3l-0.6,0.7
		c-0.1-0.1-0.2-0.2-0.3-0.2c-0.1-0.1-0.2-0.1-0.4-0.2c-0.1,0-0.3-0.1-0.4-0.1c-0.1,0-0.3,0-0.5,0c-0.3,0-0.5,0.1-0.7,0.2
		c-0.2,0.1-0.4,0.2-0.6,0.4c-0.2,0.2-0.3,0.4-0.4,0.6c-0.1,0.2-0.1,0.5-0.1,0.8c0,0.3,0,0.5,0.1,0.8s0.2,0.5,0.4,0.6
		c0.2,0.2,0.4,0.3,0.6,0.4c0.2,0.1,0.5,0.2,0.8,0.2c0.3,0,0.5,0,0.7-0.1c0.2-0.1,0.4-0.2,0.6-0.3v-1h-1.4v-0.8h2.4v2.3
		C71.1,139.4,70.9,139.5,70.7,139.6z"/>
	<path d="M81.5,138.4c-0.1,0.3-0.3,0.7-0.6,0.9c-0.3,0.3-0.6,0.5-0.9,0.6c-0.4,0.2-0.8,0.2-1.2,0.2s-0.8-0.1-1.2-0.2
		c-0.4-0.2-0.7-0.4-0.9-0.6c-0.3-0.3-0.5-0.6-0.6-0.9s-0.2-0.7-0.2-1.1s0.1-0.8,0.2-1.1s0.3-0.7,0.6-0.9s0.6-0.5,0.9-0.6
		c0.4-0.2,0.8-0.2,1.2-0.2s0.8,0.1,1.2,0.2c0.4,0.2,0.7,0.4,0.9,0.6s0.5,0.6,0.6,0.9c0.1,0.3,0.2,0.7,0.2,1.1S81.7,138,81.5,138.4z
		 M80.6,136.5c-0.1-0.2-0.2-0.4-0.4-0.6s-0.4-0.3-0.6-0.4c-0.2-0.1-0.5-0.2-0.8-0.2s-0.5,0.1-0.8,0.2c-0.2,0.1-0.4,0.2-0.6,0.4
		c-0.2,0.2-0.3,0.4-0.4,0.6c-0.1,0.2-0.1,0.5-0.1,0.8s0,0.5,0.1,0.8c0.1,0.2,0.2,0.4,0.4,0.6s0.4,0.3,0.6,0.4
		c0.2,0.1,0.5,0.2,0.8,0.2s0.5-0.1,0.8-0.2s0.4-0.2,0.6-0.4c0.2-0.2,0.3-0.4,0.4-0.6c0.1-0.2,0.1-0.5,0.1-0.8
		C80.7,137,80.7,136.7,80.6,136.5z"/>
	<path d="M87.5,134.5h1v5.5h-0.8l-3.1-3.9v3.9h-1v-5.5h0.9l3,3.8V134.5z"/>
	<path d="M90.5,134.5h1v4.6h2.9v0.9h-3.9V134.5z"/>
	<path d="M97.2,134.5v5.5h-1v-5.5H97.2z"/>
	<path d="M103.2,134.5h1v5.5h-0.8l-3.1-3.9v3.9h-1v-5.5h0.9l3,3.8V134.5z"/>
	<path d="M110.4,135.4h-3.2v1.4h2.8v0.9h-2.8v1.5h3.2v0.9h-4.2v-5.5h4.1V135.4z"/>
</g>
<path d="M38.8,21.3h-2v-2c0-0.6-0.5-1.2-1.2-1.2c-0.6,0-1.2,0.5-1.2,1.2v2h-2c-0.6,0-1.2,0.5-1.2,1.2s0.5,1.2,1.2,1.2h2v2
	c0,0.6,0.5,1.2,1.2,1.2c0.6,0,1.2-0.5,1.2-1.2v-2h2c0.6,0,1.2-0.5,1.2-1.2S39.4,21.3,38.8,21.3z"/>
<path class="st0" d="M130.6,77.3h-1.2v-1.2c0-0.6-0.5-1.2-1.2-1.2c-0.6,0-1.2,0.5-1.2,1.2v1.2h-1.2c-0.6,0-1.2,0.5-1.2,1.2
	c0,0.6,0.5,1.2,1.2,1.2h1.2v1.2c0,0.6,0.5,1.2,1.2,1.2c0.6,0,1.2-0.5,1.2-1.2v-1.2h1.2c0.6,0,1.2-0.5,1.2-1.2
	C131.8,77.8,131.3,77.3,130.6,77.3z"/>
<path d="M13.8,78.3h-2v-2c0-0.6-0.5-1.2-1.2-1.2c-0.6,0-1.2,0.5-1.2,1.2v2h-2c-0.6,0-1.2,0.5-1.2,1.2s0.5,1.2,1.2,1.2h2v2
	c0,0.6,0.5,1.2,1.2,1.2c0.6,0,1.2-0.5,1.2-1.2v-2h2c0.6,0,1.2-0.5,1.2-1.2S14.4,78.3,13.8,78.3z"/>
</svg>
