<?xml version="1.0" encoding="utf-8"?>
<!-- Generator: Adobe Illustrator 21.0.0, SVG Export Plug-In . SVG Version: 6.00 Build 0)  -->
<svg version="1.1" id="Layer_1" xmlns="http://www.w3.org/2000/svg" xmlns:xlink="http://www.w3.org/1999/xlink" x="0px" y="0px"
	 viewBox="0 0 130.5 116" style="enable-background:new 0 0 130.5 116;" xml:space="preserve">
<style type="text/css">
	.st0{fill:#A2A2FF;}
	.st1{fill:#95F9DF;}
	.st2{fill:#FFFFFF;}
</style>
<path class="st0" d="M121.9,80.1h-1.7v-1.7c0-0.5-0.4-1-1-1c-0.5,0-1,0.4-1,1v1.7h-1.7c-0.5,0-1,0.4-1,1s0.4,1,1,1h1.7v1.7
	c0,0.5,0.4,1,1,1c0.5,0,1-0.4,1-1v-1.7h1.7c0.5,0,1-0.4,1-1S122.5,80.1,121.9,80.1z"/>
<circle class="st1" cx="66.1" cy="46" r="39"/>
<g>
	<path class="st2" d="M106.8,71.9L106.8,71.9l-4.9-24.8c0,0,0,0,0-0.1c0.6-6.5-3.7-12.7-10.1-14.5c-5.9-1.6-11.9,1-15,5.8h-6v-2.5
		c0-1.7-1.1-3-2.5-3.5v-4c0-0.7-0.6-1.2-1.2-1.2s-1.2,0.6-1.2,1.2v4c-1.4,0.5-2.5,1.9-2.5,3.5v2.5h-6c-2.5-3.8-6.7-6.2-11.5-6.2
		c-7.6,0-13.7,6.2-13.7,13.7c0,0.4,0,0.7,0.1,1.1v0.1l-4.9,24.9l0,0c-0.1,0.5-0.1,1-0.1,1.5c0,4.8,3.9,8.7,8.7,8.7
		c3.1,0,6-1.7,7.6-4.3l10.6-18.1h26l10.6,18.1c1.6,2.7,4.5,4.4,7.6,4.4c4.8,0,8.7-3.9,8.7-8.7C107,72.9,106.9,72.4,106.8,71.9z"/>
	<path class="st0" d="M102.8,73.4c0,0-4.8-21-4.9-26.2c-0.2-6.9-5.6-12.5-12.6-12.5c-4.7,0-8.6,2.5-10.9,6.2h-8v-3.7
		c0-1.4-1.1-2.5-2.5-2.5c-1.4,0-2.5,1.1-2.5,2.5V41h-8c-2.2-3.7-6.2-6.2-10.9-6.2c-6.9,0-11.5,5-12.5,12.5
		c-0.1,0.5-4.9,26.2-4.9,26.2c-0.1,0.4-0.1,0.8-0.1,1.2c0,4.2,3.3,7.5,7.5,7.5c2.7,0,4.2-1.6,5.6-3.8l11.2-18.6h28.3l11.1,18.7
		c1.3,2.2,3.7,3.7,6.5,3.7c4.2,0,7.5-3.3,7.5-7.5C102.9,74.2,102.9,73.8,102.8,73.4z"/>
	<g>
		<g>
			<path d="M45.8,59.7c-7.6,0-13.7-6.2-13.7-13.7s6.2-13.7,13.7-13.7c5.7,0,10.7,3.4,12.8,8.7c0.2,0.7-0.1,1.3-0.7,1.6
				c-0.7,0.2-1.3-0.1-1.6-0.7c-1.7-4.3-5.8-7.1-10.5-7.1c-6.2,0-11.2,5.1-11.2,11.2s5.1,11.2,11.2,11.2S57,52,57,45.9
				c0-0.7,0.6-1.2,1.2-1.2s1.2,0.6,1.2,1.2C59.5,53.5,53.4,59.7,45.8,59.7z"/>
		</g>
		<g>
			<path d="M84.8,59.2c-2.7-0.7-5.1-2.2-6.9-4.3c-0.4-0.5-0.4-1.3,0.2-1.7c0.5-0.4,1.3-0.4,1.7,0.2c1.5,1.7,3.4,3,5.7,3.6
				c6,1.6,12.1-2,13.7-8s-2-12.1-8-13.7c-6-1.6-12.1,2-13.7,8c-0.6,2.1-0.5,4.2,0.2,6.2c0.2,0.7-0.2,1.3-0.8,1.6s-1.3-0.2-1.6-0.8
				c-0.8-2.5-0.8-5.2-0.2-7.6c1.9-7.3,9.5-11.7,16.8-9.8c7.3,1.9,11.7,9.5,9.8,16.8C99.6,56.8,92.1,61.1,84.8,59.2z"/>
		</g>
		<g>
			<path d="M87,59.7H47.2c-0.7,0-1.2-0.6-1.2-1.2s0.6-1.2,1.2-1.2H87c0.7,0,1.2,0.6,1.2,1.2S87.7,59.7,87,59.7z"/>
		</g>
		<g>
			<path d="M77.1,40.9H57.1c-0.7,0-1.2-0.6-1.2-1.2c0-0.7,0.6-1.2,1.2-1.2h19.9c0.7,0,1.2,0.6,1.2,1.2
				C78.3,40.4,77.7,40.9,77.1,40.9z"/>
		</g>
		<g>
			<path d="M35.8,82.1c-4.8,0-8.7-3.9-8.7-8.7c0-0.5,0-1,0.1-1.5l0,0l4.9-24.8c0.2-0.7,0.7-1.1,1.5-1c0.7,0.2,1.1,0.8,1,1.5
				l-4.9,24.8c-0.1,0.3-0.1,0.7-0.1,1c0,3.4,2.8,6.2,6.2,6.2c2.2,0,4.3-1.2,5.4-3.2l11-18.7c0.3-0.6,1.1-0.8,1.7-0.4
				c0.6,0.3,0.8,1.1,0.4,1.7l-11,18.6C41.8,80.5,39,82.1,35.8,82.1z"/>
		</g>
		<g>
			<path d="M98.3,82.1c-3.1,0-6-1.7-7.6-4.4L79.7,59c-0.3-0.6-0.2-1.3,0.4-1.7c0.6-0.3,1.3-0.2,1.7,0.4l11,18.7
				c1.1,1.9,3.2,3.2,5.4,3.2c3.4,0,6.2-2.8,6.2-6.2c0-0.3,0-0.7-0.1-1l-4.9-24.8c-0.2-0.7,0.3-1.3,1-1.5c0.7-0.2,1.3,0.3,1.5,1
				l4.9,24.8l0,0c0.1,0.5,0.1,1,0.1,1.5C107,78.2,103.1,82.1,98.3,82.1z"/>
		</g>
		<g>
			<path d="M69.5,53.5h-5c-0.7,0-1.2-0.6-1.2-1.2c0-0.7,0.6-1.2,1.2-1.2h5c0.7,0,1.2,0.6,1.2,1.2C70.8,52.9,70.3,53.5,69.5,53.5z"/>
		</g>
		<g>
			<path d="M81.2,47.7c-1-1-1-2.6,0-3.5c1-1,2.6-1,3.5,0c1,1,1,2.6,0,3.5C83.8,48.6,82.1,48.6,81.2,47.7z M83,45.9L83,45.9L83,45.9z
				"/>
		</g>
		<g>
			<path d="M86.5,53c-1-1-1-2.6,0-3.5c1-1,2.6-1,3.5,0c1,1,1,2.6,0,3.5C89,54,87.5,54,86.5,53z M88.3,51.2L88.3,51.2L88.3,51.2z"/>
		</g>
		<g>
			<path d="M86.5,42.4c-1-1-1-2.6,0-3.5c1-1,2.6-1,3.5,0c1,1,1,2.6,0,3.5C89,43.4,87.5,43.4,86.5,42.4z M88.3,40.7L88.3,40.7
				L88.3,40.7z"/>
		</g>
		<g>
			<path d="M91.8,47.7c-1-1-1-2.6,0-3.5c1-1,2.6-1,3.5,0c1,1,1,2.6,0,3.5C94.4,48.6,92.8,48.6,91.8,47.7z M93.5,45.9L93.5,45.9
				L93.5,45.9z"/>
		</g>
		<g>
			<path d="M69.5,40.9c-0.7,0-1.2-0.6-1.2-1.2v-3.7c0-0.7-0.6-1.2-1.2-1.2s-1.2,0.6-1.2,1.2v3.7c0,0.7-0.6,1.2-1.2,1.2
				s-1.2-0.6-1.2-1.2v-3.7c0-2.1,1.7-3.7,3.7-3.7s3.7,1.7,3.7,3.7v3.7C70.8,40.4,70.3,40.9,69.5,40.9z"/>
		</g>
		<g>
			<path d="M67,34.7c-0.7,0-1.2-0.6-1.2-1.2v-5c0-0.7,0.6-1.2,1.2-1.2s1.2,0.6,1.2,1.2v5C68.3,34.1,67.8,34.7,67,34.7z"/>
		</g>
	</g>
	<path d="M44.4,48h-3.5c-0.4,0-0.7-0.2-1-0.4c-0.2-0.2-0.4-0.7-0.4-1c0-0.8,0.7-1.5,1.5-1.5h3.5v-3.5c0-0.8,0.7-1.5,1.5-1.5
		c0.4,0,0.7,0.2,1,0.4c0.2,0.2,0.4,0.7,0.4,1V45h3.5c0.4,0,0.7,0.2,1,0.4s0.4,0.7,0.4,1c0,0.8-0.7,1.5-1.5,1.5h-3.5v3.5
		c0,0.8-0.7,1.5-1.5,1.5c-0.4,0-0.7-0.2-1-0.4c-0.2-0.2-0.4-0.7-0.4-1V48"/>
</g>
<g>
	<path d="M14.6,90.9h6.9c4.1,0,6.7,2.1,6.7,5.7v0.1c0,3.8-2.9,5.8-7,5.8H19v4.7h-4.5L14.6,90.9L14.6,90.9z M21.2,98.9
		c1.6,0,2.6-0.8,2.6-2.1v-0.1c0-1.4-1-2.2-2.6-2.2h-2.1v4.2L21.2,98.9L21.2,98.9z"/>
	<path d="M26.5,90.9h4.5v12.2h7.8v3.9H26.5V90.9z"/>
	<path d="M42.6,90.8h4.3l6.9,16.3H49l-1.2-2.9h-6.2l-1.2,2.9h-4.7L42.6,90.8z M46.5,100.7l-1.7-4.6l-1.8,4.6H46.5z"/>
	<path d="M53.8,101l-6.2-10.1h5.1l3.3,5.9l3.3-5.9h5l-6.2,10.1v6.2h-4.5L53.8,101L53.8,101z"/>
</g>
<g>
	<path class="st0" d="M63.6,103.8l8.1-9.1h-7.9v-3.8h14v3.2l-8.1,9.1h8.1v3.8H63.6V103.8z"/>
	<path class="st0" d="M74.9,99L74.9,99c0-4.7,3.7-8.5,8.7-8.5s8.7,3.7,8.7,8.4V99c0,4.7-3.7,8.4-8.7,8.4S74.9,103.7,74.9,99z
		 M87.8,99L87.8,99c0-2.4-1.7-4.4-4.2-4.4c-2.4,0-4.1,2-4.1,4.3V99c0,2.3,1.7,4.4,4.2,4.4C86.1,103.3,87.8,101.3,87.8,99z"/>
	<path class="st0" d="M90.6,90.9h4.2l6.6,8.6v-8.6h4.4v16.2h-3.9L95,98.2v8.9h-4.4V90.9z"/>
	<path class="st0" d="M104.7,90.9h13v3.8h-8.6v2.4h7.7v3.6h-7.7v2.6h8.6v3.8h-13.1V90.9z"/>
</g>
<path d="M37.9,21.5h-1.7v-1.7c0-0.5-0.4-1-1-1c-0.5,0-1,0.4-1,1v1.7h-1.7c-0.5,0-1,0.4-1,1c0,0.6,0.4,1,1,1h1.7v1.7c0,0.5,0.4,1,1,1
	c0.5,0,1-0.4,1-1v-1.7h1.7c0.5,0,1-0.4,1-1C38.9,22,38.4,21.5,37.9,21.5z"/>
<path class="st0" d="M114.2,68.1h-1v-1c0-0.5-0.4-1-1-1c-0.5,0-1,0.4-1,1v1h-1c-0.5,0-1,0.4-1,1c0,0.5,0.4,1,1,1h1v1
	c0,0.5,0.4,1,1,1c0.5,0,1-0.4,1-1v-1h1c0.5,0,1-0.4,1-1S114.8,68.1,114.2,68.1z"/>
<path d="M17.1,68.9h-1.7v-1.7c0-0.5-0.4-1-1-1c-0.5,0-1,0.4-1,1v1.7h-1.7c-0.5,0-1,0.4-1,1s0.4,1,1,1h1.7v1.7c0,0.5,0.4,1,1,1
	c0.5,0,1-0.4,1-1v-1.7h1.7c0.5,0,1-0.4,1-1S17.6,68.9,17.1,68.9z"/>
</svg>
