<?xml version="1.0" encoding="utf-8"?>
<!-- Generator: Adobe Illustrator 21.0.0, SVG Export Plug-In . SVG Version: 6.00 Build 0)  -->
<svg version="1.1" id="Layer_1" xmlns="http://www.w3.org/2000/svg" xmlns:xlink="http://www.w3.org/1999/xlink" x="0px" y="0px"
	 viewBox="0 0 24 24" style="enable-background:new 0 0 24 24;" xml:space="preserve">
<style type="text/css">
	.st0{fill:#204E84;}
	.st1{fill:#97FC68;}
	.st2{fill:#B6FC8D;}
	.st3{opacity:0.3;fill:#0B8980;}
	.st4{opacity:0.5;fill:#FFF200;}
	.st5{fill:#0CC1BC;}
	.st6{opacity:0.3;fill:#FFFFFF;}
</style>
<g>
	<path class="st0" d="M19.7,5c-0.1-0.1-0.5-0.1-0.6-0.1c-0.2,0.1-0.2,0.4-0.2,0.7c-0.4-0.4-1.1,0.1-0.9,0.7c-0.4-0.1-1,0.2-1,0.7
		c0,0.6,0.8,0.9,1.1,0.5c0.3,0.9,2,0.8,2-0.1c0.3,0.5,0.9,0.9,1.5,0.9c0.4,0,1.7-0.6,1.3-1.3c0.5,0,1.2-0.3,1-1
		c-0.2-0.8-1-0.4-1.4-0.4C22.8,5.2,22,5,21.8,5c-0.4-0.1-0.8,0-1.2,0.3c0.1-0.6-1.1-0.6-1,0c0.1,0,0.1,0,0.1-0.1V5z"/>
	<path class="st0" d="M2.5,6.9C2.4,6.9,2,6.8,1.9,6.9C1.7,7,1.8,7.2,1.8,7.4C1.4,7.1,0.8,7.6,0.9,8C0.6,7.9,0,8.2,0,8.6
		C0,9,0.7,9.3,1,9c0.2,0.7,1.8,0.7,1.9-0.1c0.3,0.4,0.8,0.7,1.4,0.7c0.4,0,1.6-0.5,1.2-1c0.4,0,1.1-0.2,0.9-0.8
		C6.2,7.2,5.5,7.4,5.1,7.4c0.2-0.3-0.5-0.5-0.8-0.6c-0.4-0.1-0.7,0-1.1,0.2c0.1-0.5-1-0.5-0.9,0C2.4,7.1,2.4,7.1,2.5,6.9L2.5,6.9z"
		/>
	<path class="st0" d="M19.6,10.4c0.1,0.1,0.4,0.2,0.5,0.2c0.2-0.1,0.2-0.3,0.3-0.5c0.3,0.4,1,0.1,1-0.4c0.3,0.2,0.9,0,1-0.4
		c0.1-0.5-0.5-0.9-0.9-0.6c-0.1-0.8-1.6-1.1-1.8-0.3c-0.2-0.5-0.7-0.9-1.2-1c-0.4-0.1-1.6,0.2-1.4,0.8C16.7,8,16,8.1,16,8.7
		c0,0.6,0.8,0.5,1.1,0.6c-0.2,0.3,0.4,0.6,0.6,0.7c0.4,0.2,0.7,0.2,1.1,0c-0.2,0.5,0.8,0.7,0.9,0.2C19.7,10.2,19.7,10.3,19.6,10.4
		L19.6,10.4z"/>
	<circle class="st1" cx="12.4" cy="7.2" r="7"/>
	<path class="st2" d="M7.8,10.4c0-3.9,3.1-7,7-7c1.5,0,2.8,0.4,3.9,1.2c-1-2.7-3.6-4.6-6.6-4.6c-3.9,0-7,3.1-7,7
		c0,2.4,1.2,4.5,3.1,5.8C7.9,12,7.8,11.2,7.8,10.4z"/>
	<path class="st3" d="M17.2,5c-0.3-1.1-1.4-0.9-2.3-1.3c-0.4-0.2-1-0.5-1.1-0.9c-0.1-0.4,0.3-0.8,0-1.1c-0.5-0.5-1.7-0.8-2.2-0.3
		c-0.3,0.3-0.3,0.5-0.7,0.4c-0.4,0-0.7-0.2-1-0.2c-0.8,0-1.5,0.9-2,1.5C7.6,3.4,7.4,3.7,7,3.9C6.8,4.1,6.5,4.3,6.3,4.5
		C6.1,4.9,6,5.4,6.1,5.8v0.5c0,0.4,0.1,0.7,0.1,1c0.1,0.6,0.3,0.9,0.6,1.3c0.4,0.7,0.7,1.2,1.5,1.4c0.8,0.2,1.7,0,2.3-0.6
		c0.6-0.7,0.2-1.1-0.2-1.8c-0.4-0.5-0.6-1.4-0.1-1.9c0.4-0.4,1-0.3,1,0.3c0,0.4-0.1,0.8,0.5,0.6c0.5-0.2,0.9-0.9,0.6-1.4
		c-0.3-0.6-1.1-0.8-1.7-0.9c-0.7,0-1.4,0.3-1.7,1C8.9,5.9,9.1,6.5,9.2,7c0.1,0.3,0.2,0.8,0.1,1.1C9.2,8.5,8.8,8.7,8.5,8.6
		c-1-0.4-1.2-1.9-1.1-2.8C7.6,4.3,9.5,3,10.9,2.9c1.3-0.1,3.4,1.4,3.2,2.9C14,6.3,13.6,6.6,13.2,7c-0.5,0.4-1,0.4-1.5,0.6
		c-0.4,0.2-0.3,0.5-0.1,0.9c0.3,0.6,1.1,0.6,1.7,0.4c0.5-0.2,0.7-0.4,1.1,0c0.3,0.3,0.6,0.7,0.1,0.9c-0.6,0.3-1.3,0.2-1.9,0.6
		c-0.6,0.4-0.4,1.1,0.2,1.4c1,0.5,2.6-0.3,3.2-1.1c0.5-0.7,0.5-1.5,0.2-2.3c-0.3-0.7-0.8-1-1.4-1.1c-0.5-0.1-0.8-0.3-0.3-0.8
		c0.2-0.2,0.6-0.2,0.9-0.2c0.2,0,0.4,0,0.5,0c0.2,0.1,0.2,0.3,0.3,0.4c0.4,0.3,0.8,0.1,1-0.3C17.5,6,17.3,5.5,17.2,5z"/>
	<path class="st4" d="M8,11.2c0.6,1,1.5,0.5,2.5,0.6c0.4,0.1,1.1,0.2,1.3,0.6c0.2,0.3,0,0.9,0.3,1.1c0.6,0.4,1.8,0.3,2.2-0.3
		c0.2-0.3,0.2-0.5,0.6-0.6c0.3-0.1,0.7,0,1.1-0.1c0.8-0.2,1.2-1.3,1.5-2c0.2-0.4,0.3-0.7,0.6-1c0.2-0.2,0.4-0.5,0.5-0.8
		c0.2-0.5,0.1-1-0.1-1.3L18.3,7c-0.1-0.4-0.2-0.6-0.4-1c-0.2-0.5-0.6-0.7-1-1.1c-0.6-0.6-1-1-1.9-1c-0.9,0-1.7,0.4-2,1.2
		c-0.4,0.8,0.1,1.1,0.7,1.6c0.5,0.4,1,1.2,0.6,1.8c-0.3,0.5-0.9,0.6-1,0c-0.1-0.4-0.1-0.8-0.6-0.4c-0.4,0.3-0.6,1.1-0.2,1.5
		c0.4,0.5,1.3,0.5,1.9,0.4c0.7-0.2,1.3-0.7,1.4-1.4c0-0.5-0.3-1-0.5-1.5c-0.2-0.3-0.4-0.7-0.4-1c0-0.4,0.4-0.7,0.7-0.7
		c1,0.1,1.7,1.5,1.8,2.4c0.2,1.4-1.3,3.3-2.6,3.7c-1.3,0.4-3.7-0.4-3.8-1.9c0-0.5,0.3-1,0.5-1.4c0.4-0.5,0.8-0.7,1.3-1
		C13,7,12.8,6.7,12.5,6.4c-0.5-0.5-1.2-0.3-1.7,0.1C10.3,6.8,10.2,7,9.7,6.8C9.3,6.6,8.9,6.3,9.3,5.9c0.5-0.4,1.2-0.6,1.6-1.1
		c0.4-0.6,0.1-1.2-0.6-1.3c-1.1-0.2-2.4,1-2.8,1.9C7.2,6.2,7.4,7,7.9,7.7c0.5,0.6,1,0.7,1.7,0.7c0.5,0,0.9,0.1,0.5,0.7
		C10,9.3,9.6,9.4,9.4,9.5C9.2,9.5,9,9.6,8.9,9.6c-0.2,0-0.3-0.2-0.4-0.3C8,9.1,7.6,9.4,7.5,9.9C7.4,10.4,7.7,10.8,8,11.2z"/>
	<path class="st5" d="M9.1,5.9c-0.2-0.4-1-0.8-1.3-0.4C7.7,5,7.2,4.6,6.7,4.6C6,4.5,5.3,4.7,4.7,5.2c-0.3-0.4-0.6-0.6-1-0.5
		c-0.4,0-1.2,0.3-1.3,0.8c-0.3-0.3-0.9,0.1-1,0.4c-0.1,0.3,0,0.9,0.5,0.8C1.9,7,1.7,7.1,1.8,7.4C1.9,7.7,2,7.9,2.3,8
		C2.7,8.1,3.8,8.2,4,7.7c0.3,0.3,0.5,0.5,0.9,0.5c0.3,0,0.5,0,0.8-0.2C5.8,8,5.9,7.9,6,7.9C6,7.8,6,7.6,6,7.6
		c0.2-0.1,0.3,0.2,0.5,0.2c0.2,0.1,0.6,0,0.8,0c0.4-0.1,1-0.5,0.8-1C8.7,6.8,9.3,6.6,9.1,5.9z"/>
	<path class="st5" d="M14.7,8.9c-0.1-0.3-0.5-0.7-0.8-0.5c0.1-0.9-1.6-1-2.1-0.6c0-0.9-2.1-0.6-2.3,0.1c-0.4-0.2-0.6-0.3-1-0.1
		C8.3,8,7.8,8.5,8.1,8.7L8,8.8c0-0.5-0.9-0.4-1,0c-0.1,0.5,0.6,1.1,1,0.9c0.3,0.8,1.5,0.6,2.1,0.2c0.2,0.2,0.5,0.5,0.8,0.5
		c0.2,0,0.4,0,0.6-0.1c0.1,0,0.3-0.3,0.4-0.3c0.1,0,0.2,0.2,0.3,0.3c0.2,0.1,0.4,0.2,0.6,0.2c0.4,0,1.2-0.3,1.1-0.8
		C14.3,9.7,14.8,9.3,14.7,8.9z"/>
	<path class="st5" d="M9.3,4.1C9.2,4.1,8.8,4,8.7,4.1C8.5,4.2,8.5,4.4,8.5,4.6c-0.4-0.3-1,0.1-0.9,0.6C7.4,5.1,6.8,5.4,6.8,5.8
		c0,0.5,0.7,0.8,1,0.4c0.2,0.7,1.8,0.7,1.9-0.1c0.3,0.4,0.8,0.7,1.4,0.7c0.4,0,1.6-0.5,1.2-1c0.4,0,1.1-0.2,0.9-0.8
		c-0.1-0.6-0.9-0.4-1.2-0.3c0.2-0.3-0.5-0.5-0.8-0.6c-0.4-0.1-0.7,0-1.1,0.2c0.1-0.5-1-0.5-0.9,0C9.2,4.3,9.2,4.3,9.3,4.1L9.3,4.1z"
		/>
	<path class="st5" d="M15.1,7.2c-0.3-0.3-0.6-0.3-0.9,0c-0.3,0.3-0.2,0.6,0.3,0.6c-0.7,0.5,1,1.1,1.2,0.4c0,0.3,0.3,0.6,0.6,0.7
		C16.6,9,17,8.8,17.1,8.5C17.4,8.7,17.6,9,18.1,9c0.4,0,0.9-0.3,1-0.7c0.2,0.7,1.8,0.4,1.4-0.6c0.2,0,0.4,0.1,0.7,0
		c0.2-0.1,0.4-0.4,0.4-0.6c0-0.4-0.8-0.7-1.1-0.5c0.2-0.8-1.7-0.8-1.9-0.2C18.4,6,17.6,6,17.3,6.1c-0.3,0.1-0.6,0.4-0.7,0.7
		c-0.2-0.3-0.6-0.4-1-0.4c-0.5,0.1-0.6,0.4-0.7,0.8C15.1,7.2,15.1,7.2,15.1,7.2L15.1,7.2z"/>
	<path class="st6" d="M2.2,6.5C2,6.6,1.9,6.2,2,6.1C2.1,5.9,2.4,5.9,2.5,6c0.1-0.4,0.7-0.6,1-0.3c0.2-0.3,1.3-0.3,1.2,0.1
		c0.3,0.1,0.1,0.8-0.3,0.7C4.5,7.1,3,7.4,3,6.9C3,7.2,2.4,7.2,2.3,7C2,6.9,2.2,6.6,2.2,6.5L2.2,6.5z"/>
	<path class="st6" d="M10.7,5.3c-0.2-0.2-0.4-0.2-0.6,0c0-0.5-0.9-0.3-1.1,0C8.9,5,8.6,5,8.5,5.2C8.4,5.1,8.3,5.1,8.2,5.1
		C8,5.2,8,5.3,8,5.4C7.9,5.3,7.4,5.3,7.3,5.5c-0.2-0.2-0.6-0.1-0.7,0C6.5,5.7,6.3,5.9,6.5,6C6.4,6.2,6.6,6.4,6.7,6.4
		c0.2,0.1,0.5-0.1,0.6-0.2c0,0.2,0.4,0.2,0.5,0.1c0.2,0,0.3-0.2,0.4-0.2c0.2,0,0.3,0.1,0.4,0c0.2-0.1,0.3-0.2,0.3-0.4
		C9,6.1,9.3,5.7,9.4,5.6c0.1-0.1,0.1,0,0.2,0c0.2,0.1,0.4,0.1,0.6,0.1C10.4,5.8,11.1,5.6,10.7,5.3z"/>
	<path class="st6" d="M12.7,8.8c0-0.1-0.1-0.3-0.2-0.3c-0.1-0.1-0.5-0.1-0.5,0.1c-0.2-0.5-0.5-0.6-1-0.5c-0.4,0-0.6,0.1-0.8,0.5
		C10,8.5,9.9,8.3,9.7,8.4c-0.2,0-0.3,0.1-0.4,0.3C9.2,8.5,8.9,8.4,8.7,8.5C8.6,8.6,8.6,8.8,8.6,8.9c-0.1,0-0.1,0-0.1,0
		C8.4,9,8.3,9.1,8.3,9.2c0,0.2,0.3,0.4,0.4,0.2c0,0.2,0.3,0.3,0.5,0.3c0.3,0.1,0.7-0.1,0.9-0.3c0.2,0.2,0.3,0.3,0.6,0.3
		c0.3,0,0.6-0.1,0.7-0.4c0.1,0,0.1,0.1,0.2,0.2c0.1,0.1,0.3,0.1,0.5,0.1c0.2,0,0.4-0.1,0.5-0.3c0-0.1,0-0.2,0.1-0.3
		C12.6,9,12.7,9,12.7,8.8z"/>
	<path class="st6" d="M18,7.5c-0.2-0.3-0.7-0.3-0.9,0c-0.2-0.4-0.7-0.4-0.9,0c0-0.2-0.3-0.4-0.5-0.4c-0.3,0-0.3,0.2-0.5,0.4
		c-0.1-0.1-0.3-0.2-0.4-0.1c-0.3,0.1-0.1,0.3,0.1,0.3c-0.1,0.1,0,0.3,0.1,0.3C15,8,15.1,8,15.2,8c0,0,0,0,0,0c0,0.1,0.1,0.1,0.2,0.1
		c0.2,0,0.3-0.2,0.4-0.2c0.2,0,0.2,0.3,0.3,0.4c0.3,0.2,0.7-0.1,0.8-0.4c0.2,0.1,0.2,0.2,0.4,0.2c0.3,0,0.4-0.1,0.5-0.3
		C18.1,8.1,18.1,7.6,18,7.5z"/>
</g>
</svg>
