<?xml version="1.0" encoding="utf-8"?>
<!-- Generator: Adobe Illustrator 21.0.0, SVG Export Plug-In . SVG Version: 6.00 Build 0)  -->
<svg version="1.1" id="Layer_1" xmlns="http://www.w3.org/2000/svg" xmlns:xlink="http://www.w3.org/1999/xlink" x="0px" y="0px"
	 viewBox="0 0 24 24" style="enable-background:new 0 0 24 24;" xml:space="preserve">
<style type="text/css">
	.st0{fill:#7D0D98;}
	.st1{fill:#ED6326;}
	.st2{fill:#EF8A34;}
	.st3{opacity:0.2;fill:#9CE8E6;enable-background:new    ;}
	.st4{opacity:0.1;fill:#FFFFFF;enable-background:new    ;}
	.st5{fill:#A812CC;}
	.st6{fill:#C318ED;}
</style>
<g>
	<path class="st0" d="M22.7,3l-0.6-0.3c0,0-1-0.1-2.3,0.2c-1.3,0.3-2.5,1-2.5,1l1.6,2.3l1.6,0.9l2.2-3.3L22.7,3z"/>
	<path class="st0" d="M4.6,7.7c0,0-2,1.3-3,2.2c-0.8,0.8-1.4,2.2-1.4,2.2l3.2,1.5L6,12.1L4.6,7.7z"/>
	<g>
		<g>
			<circle class="st1" cx="12.3" cy="9.4" r="9.2"/>
			<g>
				<path class="st2" d="M13.7,16.2c-0.3-1.5-0.8-2.2-1.8-3.2c-0.8-0.8-1.5-1-1.5-2.2c0-0.8,0.3-1.3,0.5-2c0.3-0.9-0.3-2.1-0.2-3.1
					c0.1-0.6,0.3-1.2,0.6-1.7c0.1-0.7,0-1.3-0.1-1.8c-0.1-0.6-0.3-1.2-0.5-1.8C10,0.4,9.5,0.6,8.9,0.8c0.3,0.3,0.6,0.8,0.5,1.4
					c-0.1,0.7-0.7,1.3-0.9,2C8.1,4.9,8,5.6,8,6.4C8.1,7.2,8.3,8,8.3,8.8c0,0.8-0.2,1.5,0,2.3C8.5,12,9,12.4,9.5,13
					c0.5,0.6,0.5,1.3,0.8,1.8c0.6,1.2,1.8,1.4,2.2,2.9c0,0.2,0,0.6,0,0.9c0.5,0,0.9,0,1.4-0.1C14,17.8,13.8,17,13.7,16.2z"/>
				<path class="st2" d="M9.5,15.5c-0.5-0.9-0.8-1.4-1.6-2C7.4,13.2,7,13,6.7,12.6c-0.6-0.8-0.6-1.8-0.6-2.9c0-1.2-0.3-2.2-0.3-3.3
					c0-1,0.6-1.7,0.8-2.8C6.7,3,6.7,2.4,6.9,1.9C6,2.6,5.2,3.4,4.6,4.3c0.1,0.9,0.6,1.6,0.5,2.5C4.8,8.1,4,9,4.6,10.4
					C4.7,11,5.1,11.3,5.2,12c0,0.5,0,1,0.3,1.5c0.2,0.5,0.7,0.6,1,0.9c0.3,0.3,0.6,0.8,0.7,1.3c0.3,0.8,0.9,1.4,1.4,2.1
					c0.6,0.2,1.2,0.5,1.8,0.6C10.4,17.4,10,16.6,9.5,15.5z"/>
				<path class="st2" d="M19,13.5c-0.3-0.9,0-2-0.5-2.9c-0.1-0.2-0.2-0.6-0.6-0.8c-0.2-0.1-0.5,0-0.6-0.3c-0.2-0.3-0.2-1.3-0.2-1.7
					c0-1.4,0.2-2.7,0.8-3.8c0.1-0.3,0.3-0.9,0.6-1.4c-0.5-0.5-1-0.8-1.6-1.2c0.1,1.4-0.5,2.9-1,4.1c-0.6,1.5-1,4.1,0.2,5.4
					c0.5,0.5,0.9,0.6,1,1.2c0.1,0.6,0,1-0.1,1.6c0,0.5,0.1,1.3,0.5,1.6c0.2,0.3,0.7,0.5,1.2,0.7c0.6-0.5,1-1,1.4-1.7
					C19.7,14.2,19.3,14.1,19,13.5z"/>
				<path class="st2" d="M14.5,0.7c0-0.1,0-0.2,0-0.3c-0.6-0.1-1.2-0.2-1.7-0.2c0,2.2,0,4.4-0.5,6.5c-0.2,0.9-0.2,1.8-0.2,2.8
					s0,1.3,0.7,2c0.5,0.5,0.7,1.2,0.8,1.7c0.1,0.7,0.2,0.8,0.6,1.3c0.2,0.3,0.2,0.7,0.3,1c1,0-0.5-3.7-0.5-4.1
					c-0.1-0.9-0.2-1.2-0.8-2c-0.6-0.6-0.8-0.8-0.3-1.6c0.3-0.7,0.7-1.3,0.7-2c0-0.6-0.2-1.2-0.2-1.8C13.5,2.8,14.5,2,14.5,0.7z"/>
				<path class="st2" d="M19.9,4.1c-0.1,0.2-0.2,0.3-0.2,0.5c-0.7,1.4-0.5,2.9,0,4.4c0.2,0.8,0.8,2.5,1.6,3c0.2-0.8,0.3-1.6,0.3-2.5
					C21.6,7.4,21,5.6,19.9,4.1z"/>
			</g>
		</g>
		<path class="st3" d="M18.8,15.9c3.7-3.6,3.7-9.5,0.1-13c-3-3.1-7.6-3.6-11.2-1.6C8,1.5,8.3,1.9,8.8,2c1.7,0.8,3.9,0.7,5.6,1.4
			c3.7,1.5,6.5,4.8,4,8.8c-0.9,1.6-2.8,2.9-4.6,3.1c-2.1,0.2-3.3-1.4-4.4-2.9c-0.9-1.4-2-4.6-3.9-5.2C5,6.9,3.6,6.9,3.2,8.1
			c-0.3,2.8,0.5,5.5,2.5,7.6C9.3,19.4,15.1,19.5,18.8,15.9z"/>
		<ellipse transform="matrix(0.6209 -0.7839 0.7839 0.6209 -2.5451 8.8016)" class="st4" cx="7.8" cy="7" rx="3.5" ry="2.5"/>
	</g>
	<path class="st5" d="M0.2,12c0,0,3.5,2.1,13.3-1.8c7.8-3.1,8.6-7.4,8.6-7.4s0.9,0,1.6,0.8C24.4,4.4,23.5,6,23.5,6s-2.1,4.3-8.4,7
		c-8,3.5-14.4,2.8-15,0.6C-0.2,12.8,0.2,12,0.2,12z"/>
	<path class="st6" d="M0.9,12.8l-0.5,0.7c0,0,1.5,0.7,3.2,0.6c4.3-0.2,8-1.4,9.2-2c1.5-0.6,2.5-1.2,2.5-1.2L16,9.6
		c0,0-1.7,1-3.6,1.7c-2.1,0.7-5.6,1.8-8.8,2C2,13.3,0.9,12.8,0.9,12.8z"/>
</g>
</svg>
