<?xml version="1.0" encoding="utf-8"?>
<!-- Generator: Adobe Illustrator 21.0.0, SVG Export Plug-In . SVG Version: 6.00 Build 0)  -->
<svg version="1.1" id="Layer_1" xmlns="http://www.w3.org/2000/svg" xmlns:xlink="http://www.w3.org/1999/xlink" x="0px" y="0px"
	 viewBox="0 0 24 24" style="enable-background:new 0 0 24 24;" xml:space="preserve">
<style type="text/css">
	.st0{fill:#7D0D98;}
	.st1{fill:#EB53C0;}
	.st2{opacity:0.3;fill:#EB53C0;enable-background:new    ;}
	.st3{opacity:0.2;fill:#FFFFFF;enable-background:new    ;}
	.st4{opacity:0.2;}
	.st5{fill:#FFFFFF;}
	.st6{opacity:0.5;fill:#FF71F8;enable-background:new    ;}
</style>
<g>
	<circle class="st0" cx="12" cy="9" r="8.9"/>
	<path class="st1" d="M20.1,9.6c-0.9-0.3-3.9,0.2-4.1-1c-0.1-0.7,0.6-1.4,0.3-2c-0.3-0.7-1.4-0.7-2-0.8c-0.6-0.1-1.9-0.4-1.8-1.3
		c0.1-0.7,1-0.7,1.4-0.7c1.1-0.2,2-0.3,3-0.9c0.3-0.1,0.6-0.3,0.9-0.6c-0.6-0.6-1.2-1-2-1.3c-0.1,0.2-0.6,0.1-0.8,0.3
		c-0.3,0.3,0.2,0.7-0.6,1c-0.3,0.1-1.1,0.2-1.4,0C12.7,2,12.7,1.7,12,1.7c0,0-0.6,0-0.6,0.1c-0.2,0.1-0.2,0.3-0.3,0.4
		c-0.6,0.4-0.7-0.1-1.2-0.1c-0.7,0-0.7,0.6-0.9,1C8.7,3.5,8.2,3.8,7.6,3.8C7,3.8,6.7,3.6,6.3,3.1C6.2,2.9,6.2,2.6,6.1,2.3
		c-1.8,1.6-3,3.9-3,6.4c0.3-0.2,0.4-0.6,0.6-0.9l0.2-0.6C4.2,6.1,5.7,5,6.6,6.2c0.3,0.6,0.6,1.2,1.3,1.3c0.9,0.1,1.6-0.8,2.3-1.1
		C11.1,5.9,12,6,12.8,6.8c0.4,0.4,1.2,1.7,0.7,2.3c-1,1.3-2.8-1-4-0.2c-1.6,1.1,1.4,1.9,2,2.3c1.7,1.4-0.7,2.8-2.1,2.8
		c-0.4,0-1-0.2-1.4-0.1c-0.7,0.2-1.3,0.8-2,1.1H5.8c1.1,1.1,2.4,2,4,2.4c0.1-1,1.4-0.3,2-0.3c1.4,0.1,0.3-1.8,1.6-2.2
		c0.4-0.1,1.2-0.1,1.2,0.3c0.1,0.6-1,1-0.4,1.3c0.7,0.4,0.6-0.6,1-0.7c0.2-0.1,0.2,0.3,0.6,0.3c0.2,0,0.2-0.2,0.4-0.3
		c0.6-0.2,1.1-0.3,1.6,0c1.9-1.4,3.1-3.7,3.3-6.1C20.7,9.8,20.3,9.7,20.1,9.6z"/>
	<path class="st2" d="M7.7,7.9c-0.2-0.1-0.4,0-0.7,0c-0.6,0-1-0.2-1.1-0.7C5.7,6.8,5.2,6.6,4.8,6.9c-0.4,0.3-0.3,1-0.4,1.4
		C4.2,8.7,3.9,9.6,3.5,9.4l0,0c-0.3,0.2-0.2,0.7,0.1,0.8c0.3,0.2,0.7-0.1,0.8-0.3c0.2-0.6,0.3-1.2,0.8-1.7c0.3-0.3,0.8,0.1,1.1,0.1
		c0.3,0.1,1,0.1,1.3,0C7.8,8.2,8,8,7.7,7.9z"/>
	<path class="st2" d="M17.5,6.3c0-0.6-0.2-0.9-0.7-1.2c-0.2-0.1-0.4-0.2-0.7-0.3c-0.2-0.1-0.4-0.1-0.7-0.2c-0.2-0.1-0.2-0.3,0-0.4
		c0.2-0.1,0.4,0,0.7,0c0.2,0,1,0,0.7-0.3c-0.2-0.1-0.8-0.1-1,0c-0.6,0.1-1.3,0-1.9,0.2l0,0l-0.3,0.1c-0.2,0-0.3,0.3-0.1,0.6
		c0.2,0.2,0.6,0.2,0.8,0.2c0.6,0,1.1,0,1.7,0.3c0.4,0.2,1,0.7,1,1.1c0,0.2-0.3,1.3-0.1,1.3C17.3,7.8,17.5,6.6,17.5,6.3z"/>
	<path class="st2" d="M10.1,1.5C10,1.2,9.6,1.3,9.4,1.3c-0.4,0-0.7,0.2-1,0.4C8.2,1.9,7.7,2.3,7.3,2.2c0-0.1,0.4-0.7,0-0.4L6.9,2
		C6.3,2,6.7,2.8,7,3c0.6,0.2,1-0.1,1.3-0.6C8.6,2.2,8.8,2,9,1.9c0.3-0.2,0.4-0.1,0.8-0.1C9.9,1.8,10.2,1.7,10.1,1.5z"/>
	<path class="st2" d="M19.9,7.9c-0.1-0.6-0.8-0.9-1.1-1.3C18.4,6.2,18,6.1,18,6.8l0,0l-0.1,0.1c0,0.3-0.2,0.6-0.4,0.8
		c-0.1,0.1-0.4,0.2-0.6,0.4c-0.2,0.2,0,0.6,0.2,0.6c0.3,0.1,0.7-0.1,1-0.2C18.8,8.2,20,8.9,19.9,7.9z"/>
	<path class="st3" d="M14,6.7C13.2,5.6,11.7,5,10.3,5C9.8,5,9,5.2,8.6,5.6C8.1,5.9,7.8,6.1,7.3,5.7C6.7,5,5.8,4.2,4.8,4.9
		C4.3,5,4.1,5.3,3.9,5.7C3.7,5.9,3.7,5.9,3.7,6.2c0,0.1,0.1,0.6,0.2,0.2V6.3c0.6-0.8,1.8-1.7,2.7-0.8C6.7,5.8,6.8,6,6.9,6.1
		C7,6.3,7.2,6.4,7.5,6.6c0.7,0.3,1.3,0.1,1.9-0.3c1-0.8,2.6-0.7,3.4,0.1c0.9,0.7,2,2.8,0.7,3.5c-0.6,0.3-1.3,0.2-1.9,0
		C11,9.8,10.4,9.1,9.9,9.4C9.8,9.6,9.4,9.7,9.7,9.9c0.2,0.2,0.3-0.1,0.6-0.1c0.4-0.1,1.2,0.4,1.6,0.6c0.4,0.1,1,0.3,1.4,0.2
		c0.4,0,1-0.4,1.2-0.9C14.8,8.8,14.6,7.4,14,6.7z"/>
	<path class="st3" d="M12.3,11.1c-0.4-0.6-1.1-0.8-1.8-1h-0.1c-0.3,0.1,0.2,0.2,0.3,0.3c0.3,0.1,0.6,0.2,0.8,0.4
		c0.4,0.4,0.7,1,0.7,1.6c0,0.8-0.3,1.4-1,1.8c-0.6,0.2-1.2,0.3-1.9,0.3c-0.4,0-1,0-1.6,0.1c-0.3,0.1-1,0.2-1.1,0.6
		c-0.1,0.2,0,0.3,0.2,0.4c0.2,0,0.3-0.2,0.6-0.3C7.9,15.1,8.6,15.1,9,15c1.1-0.2,2.7,0,3.4-1.1C13,13,12.9,11.9,12.3,11.1z"/>
	<path class="st3" d="M17.9,15c-0.1-0.4-1.1-0.3-1.4-0.3c-0.4,0-1,0.2-1.3,0c-0.4-0.4-0.7-0.8-1.3-0.8c-0.6,0-1.3,0.4-1.7,0.8
		c-0.4,0.4-0.6,1-1.1,1.2c-0.7,0.2-1.6-0.2-2.2,0.2c-0.4,0.3-0.1,1.4,0.2,1l0.1,0.1c-0.1-0.8,1-1,1.6-0.9c0.3,0.1,0.6,0.2,0.9,0.2
		c0.6,0,0.4-0.4,0.6-0.8c0.2-0.8,1-1.3,1.8-1.3c0.2,0,0.7,0,0.8,0.3c0,0.2-0.2,0.3,0,0.7c0.2,0.2,0.4,0.2,0.6,0v0.1
		c0.2,0,0.4-0.3,0.7-0.3c0.3-0.1,0.6,0,0.9,0.1c0.2,0,0.4,0.2,0.7,0.2C17.8,15.4,18,15.2,17.9,15z"/>
	<path class="st3" d="M19,10c-0.9-0.1-2.3,0.3-3-0.4c-0.4-0.4-0.2-1.7-0.2-2.3c0-0.3,0-0.9-0.3-1.1C15.3,6,15.1,6,14.9,6
		c-0.2,0.1-0.1,0.2,0.1,0.2l0.3,0.1c0.4,0.4,0.2,1,0.1,1.4c-0.2,0.6-0.3,1.3,0,2c0.3,0.7,1.2,0.8,1.9,0.8c0.6,0,1.1-0.2,1.7-0.1
		c0.4,0.1,0.9,0.6,1.2,0.1C20.5,10.1,19.3,10,19,10z"/>
	<path class="st3" d="M17.1,2c0-0.1-0.1-0.2-0.2-0.2v0.1c-0.1,0.6-1.1,0.8-1.6,0.9C14.4,3,13.7,3,12.8,3.2c-0.6,0.1-1.4,0.6-1.4,1.2
		c0,0.2,0.2,0.4,0.4,0.4c0.3,0,0.2-0.2,0.2-0.4c0-0.7,0.7-0.9,1.1-0.9c0.6-0.1,1.1-0.1,1.7-0.3c0.4-0.2,1-0.3,1.4-0.4
		C16.5,2.7,17.2,2.5,17.1,2z"/>
	<g class="st4">
		<path class="st5" d="M13,13.4L13,13.4L13,13.4L13,13.4z"/>
		<path class="st5" d="M18.4,13.9c-0.3-0.4-1.3-0.4-1.9-0.4c-0.4,0-0.9,0.2-1.3,0c-0.6-0.3-0.9-1-1.6-0.7c-0.2,0.1-0.6,0.3-0.7,0.7
			h0.1c-0.1,0-0.1,0-0.1,0.1c0.2,0.1,0.4-0.1,0.7-0.2c0.2-0.1,0.6,0,0.8,0c0.2,0.1,0.4,0.2,0.6,0.4c0.1,0.2,0.1,0.4,0.4,0.4
			c0.4,0,0.9-0.3,1.3-0.2c0.4,0.1,0.8,0.4,1.1,0.7C18.5,15.1,19,14.2,18.4,13.9z"/>
	</g>
	<g>
		<path class="st3" d="M7.5,4.9L7.5,4.9L7.5,4.9z"/>
		<path class="st3" d="M7.5,4.9L7.5,4.9L7.5,4.9C7.5,4.8,7.5,4.9,7.5,4.9z"/>
		<path class="st3" d="M12.2,2.1c-0.3-0.2-0.3,0.1-0.4,0.3c-0.2,0.3-0.9,0.3-1.2,0.6C10,3.2,9.7,3.6,9.4,4C9.2,4.3,8.8,4.6,8.3,4.7
			C8,4.8,7.7,4.6,7.5,4.8L7.6,5C7.2,5.6,8.8,5.1,9,5c0.6-0.3,0.9-0.8,1.2-1.3C10.6,3.3,11,3.1,11.4,3c0.3-0.1,1-0.1,1.1-0.6
			C12.4,2.3,12.3,2.1,12.2,2.1z"/>
	</g>
	<path class="st6" d="M12,17.9c5,0,9-4,9-8.9c0-4.1-2.9-7.7-6.7-8.7c0,0.3,0,0.8,0.2,1.2c0.7,1.7,2.2,3.1,3,4.8
		c1.6,3.5,1.2,7.7-3.1,8.9c-1.8,0.4-3.9,0.2-5.3-0.9C7.5,13.1,7.8,11.2,8,9.4C8.3,7.7,9.8,4.8,8.8,3C8.4,2.5,7.6,1.3,6.5,2
		C4.3,3.6,3,6.1,3,9C3,13.9,7,17.9,12,17.9z"/>
	<path class="st3" d="M6.2,13.4c-0.7-1-0.9-2.2-1-3.4c-0.1-1.2,0-2.6,0.3-3.8C5.8,5.5,6.9,3.8,6,3.7C5.3,3.5,4.1,5.1,3.9,6.1
		C3.6,8,3.7,9.9,4.2,11.8c0.2,0.8,0.6,1.4,0.9,2.2c0.2,0.3,0.4,0.6,0.8,0.8c0.2,0.1,0.7,0.3,0.9,0.3C7.7,15.1,6.5,13.7,6.2,13.4z"/>
</g>
</svg>
